<?xml version="1.0" encoding="UTF-8"?>
<svg id="Ebene_1" xmlns="http://www.w3.org/2000/svg" version="1.1" viewBox="0 0 948.36 543.28">
  <!-- Generator: Adobe Illustrator 30.5.0, SVG Export Plug-In . SVG Version: 2.1.4 Build 167)  -->
  <defs>
    <style>
      .st0 {
        fill: #b17853;
      }

      .st1 {
        fill: none;
        stroke: #b17853;
        stroke-miterlimit: 10;
        stroke-width: 3px;
      }

      .st2 {
        fill: #85866b;
      }

      .st3 {
        fill: #2f4332;
      }
    </style>
  </defs>
  <g>
    <g>
      <path class="st2" d="M468.07,251.52l14.03-26.15c7.65-14.25,16.49-27.5,27.94-38.9,7.44-7.42,15.2-13.45,23.27-20.08,13.62-11.18,25.48-23.86,34.62-39,12.4-20.53,19.93-46.78,17.9-71.65l-4.88,7.47c-4.19,6.42-9.87,12.11-16.33,16.23l-16.45,10.48c-5,3.19-9.86,6.21-14.59,9.77-15.92,11.96-28.13,27.17-36.67,45.02-9.59,20.04-11.63,31.96-15.79,52.68l-4.13,20.59c-2.31,11.54-6.73,21.94-11.92,32.43-.76,1.54-1.21,2.61-2.3,3.79l-11.98,12.92c-3.62.5,2.05-4.3,5.11-13.8,10.42-32.32,6.22-64-20.44-86.28-12.82-10.71-28.19-13.65-39.38-23.34-4.84-4.2-8.08-9.29-11.84-14.75-2.58,29.77,11.54,57.14,37.16,71.04,16.33,8.86,29.73,17.01,33.63,36.88,1.9,9.68-5,21.29-10.25,30.48l-12.59-2.65c-6.21-1.31-11.62-3.75-17.44-6.4-13.3-6.04-25.34-14.06-35.78-24.33-9.3-9.15-17.13-18.82-23.46-30.2-19.85-35.7-23.14-76.52-7.44-114.49,6.53-15.78,13.55-27.31,24.75-40.21,10.59-12.2,23.2-21.78,37.52-29.26C452.01-1.94,502.97.22,542.56,25.21c11.61,7.38,21.64,15.64,30.59,26.24l1.53-.38c.38-.09.05-1.31-.16-1.76-14.11-18.14-32.54-31.48-53.97-40-24.01-9.55-49.92-11.57-75.51-6.93-28.97,5.25-54.89,20.2-74.78,41.82-20.05,21.79-32.69,49.21-36.36,78.7-3.52,28.37,2.4,56.53,15.91,81.63,15.57,28.94,41.51,51.26,72.39,62.27l18.45,5.54c-11.69,11.62-25.77,17.33-40.98,21.88,8.96.56,17.15-2.22,24.91-5.72,15.29-6.9,28.83-17.78,39.01-31.12l4.48-5.87Z"/>
      <path class="st2" d="M573.76,177.66c-8.28,4.82-17.13,7.77-25.78,11.87l-14.01,6.66c-13.94,7.27-26.24,17.05-35.42,29.83l-18.09,25.16-11.05,13.34-9.1,8.54c7.26.87,18.03-3.9,23.45-7.59,13.4-9.13,26.97-12.25,41.53-19.86,6.42-3.35,10.64-8.48,13.15-15.05,1.71-4.47,4.62-8.28,8.59-10.85l16.63-10.74c14.29-9.24,29.39-30.59,29.79-49.09-5.78,7.43-11.9,13.24-19.68,17.78Z"/>
    </g>
    <circle class="st0" cx="473.27" cy="113.82" r="16.11"/>
  </g>
  <g>
    <path class="st3" d="M65.66,421.72H6.02c-.28,0-.42-.28-.42-.84s.14-.84.42-.84c3.17,0,5.58-.23,7.21-.7,1.63-.47,2.73-1.4,3.29-2.8.56-1.4.84-3.45.84-6.16v-64.82c0-2.71-.28-4.74-.84-6.09-.56-1.35-1.66-2.29-3.29-2.8-1.63-.51-4.04-.77-7.21-.77-.28,0-.42-.28-.42-.84s.14-.84.42-.84h57.12c.93,0,1.4.42,1.4,1.26l.28,17.64c0,.28-.26.44-.77.49-.51.05-.82-.07-.91-.35-.65-5.13-2.47-9.03-5.46-11.69-2.99-2.66-6.91-3.99-11.76-3.99h-7.14c-2.8,0-4.95.23-6.44.7-1.49.47-2.52,1.33-3.08,2.59-.56,1.26-.84,3.01-.84,5.25v63.7c0,2.24.26,3.99.77,5.25.51,1.26,1.47,2.15,2.87,2.66,1.4.51,3.36.77,5.88.77h9.24c5.32,0,9.71-1.56,13.16-4.69,3.45-3.13,5.83-7.58,7.14-13.37,0-.28.28-.37.84-.28.56.09.84.28.84.56-.37,2.52-.7,5.55-.98,9.1-.28,3.55-.42,6.81-.42,9.8,0,1.4-.7,2.1-2.1,2.1ZM57.82,389.52c0-4.01-1.14-6.98-3.43-8.89-2.29-1.91-5.95-2.87-10.99-2.87h-20.3v-3.22h20.72c4.76,0,8.26-.82,10.5-2.45,2.24-1.63,3.36-4.18,3.36-7.63,0-.19.26-.28.77-.28s.77.09.77.28c0,2.89-.02,5.13-.07,6.72-.05,1.59-.07,3.27-.07,5.04,0,2.15.07,4.29.21,6.44.14,2.15.21,4.43.21,6.86,0,.19-.28.28-.84.28s-.84-.09-.84-.28Z"/>
    <path class="st3" d="M134.96,374.12l1.54-1.82c5.79,0,10.85,1.03,15.19,3.08,4.34,2.05,7.7,4.85,10.08,8.4,2.38,3.55,3.57,7.65,3.57,12.32,0,4.95-1.28,9.4-3.85,13.37-2.57,3.97-6.07,7.09-10.5,9.38-4.43,2.29-9.4,3.43-14.91,3.43-2.8,0-6.11-.14-9.94-.42-3.83-.28-7.33-.42-10.5-.42s-6.21.05-9.1.14c-2.89.09-5.51.14-7.84.14-.28,0-.42-.28-.42-.84s.14-.84.42-.84c3.08,0,5.46-.23,7.14-.7,1.68-.47,2.82-1.4,3.43-2.8.61-1.4.91-3.45.91-6.16v-64.82c0-2.71-.28-4.74-.84-6.09-.56-1.35-1.66-2.29-3.29-2.8-1.63-.51-4.04-.77-7.21-.77-.19,0-.28-.28-.28-.84s.09-.84.28-.84c2.33,0,4.92.07,7.77.21,2.85.14,5.86.21,9.03.21,2.52,0,5.32-.14,8.4-.42s5.83-.42,8.26-.42c5.6,0,10.2.77,13.79,2.31,3.59,1.54,6.28,3.69,8.05,6.44,1.77,2.75,2.66,5.95,2.66,9.59,0,5.23-1.96,9.8-5.88,13.72-3.92,3.92-9.24,6.67-15.96,8.26ZM129.64,336.18c-2.05,0-3.71.21-4.97.63-1.26.42-2.15,1.31-2.66,2.66-.51,1.35-.77,3.48-.77,6.37v27.44l-4.62-1.12c2.99.19,5.46.3,7.42.35,1.96.05,3.08.07,3.36.07,6.53,0,11.25-1.87,14.14-5.6,2.89-3.73,4.34-8.31,4.34-13.72,0-3.36-.58-6.32-1.75-8.89-1.17-2.57-2.92-4.57-5.25-6.02-2.33-1.45-5.41-2.17-9.24-2.17ZM133.84,419.48c6.81,0,11.78-1.75,14.91-5.25,3.13-3.5,4.69-8.42,4.69-14.77,0-6.91-1.91-12.58-5.74-17.01-3.83-4.43-9.43-6.65-16.8-6.65-1.87-.09-4.01-.09-6.44,0-2.43.09-4.9.33-7.42.7l4.2-1.54v35.42c0,2.15.3,3.9.91,5.25.61,1.35,1.82,2.33,3.64,2.94,1.82.61,4.5.91,8.05.91Z"/>
    <path class="st3" d="M229.6,333.8c8.03,0,14.16,1.56,18.41,4.69,4.25,3.13,6.37,7.44,6.37,12.95,0,3.45-.82,6.77-2.45,9.94-1.63,3.17-3.83,5.97-6.58,8.4-2.75,2.43-5.93,4.34-9.52,5.74-3.59,1.4-7.3,2.1-11.13,2.1-1.12,0-2.29-.02-3.5-.07-1.21-.05-2.33-.12-3.36-.21v33.04c0,2.71.26,4.76.77,6.16.51,1.4,1.59,2.33,3.22,2.8,1.63.47,4.08.7,7.35.7.28,0,.42.28.42.84s-.14.84-.42.84c-2.33,0-4.9-.05-7.7-.14-2.8-.09-5.88-.14-9.24-.14-3.17,0-6.21.05-9.1.14-2.89.09-5.51.14-7.84.14-.28,0-.42-.28-.42-.84s.14-.84.42-.84c3.17,0,5.58-.23,7.21-.7,1.63-.47,2.75-1.4,3.36-2.8.61-1.4.91-3.45.91-6.16v-64.82c0-2.71-.28-4.74-.84-6.09-.56-1.35-1.63-2.29-3.22-2.8-1.59-.51-4.01-.77-7.28-.77-.19,0-.28-.28-.28-.84s.09-.84.28-.84c2.33,0,4.92.07,7.77.21,2.85.14,5.86.21,9.03.21,2.52,0,5.41-.14,8.68-.42,3.27-.28,6.16-.42,8.68-.42ZM242.76,356.48c0-5.32-.7-9.45-2.1-12.39-1.4-2.94-3.29-4.99-5.67-6.16-2.38-1.17-5.06-1.75-8.05-1.75-2.24,0-4.01.21-5.32.63-1.31.42-2.26,1.33-2.87,2.73-.61,1.4-.91,3.5-.91,6.3v27.86c1.31.09,2.73.21,4.27.35s2.87.21,3.99.21c5.97,0,10.24-1.33,12.81-3.99,2.57-2.66,3.85-7.26,3.85-13.79ZM265.72,421.72c-1.49,0-3.94-1.87-7.35-5.6-3.41-3.73-7.49-9.05-12.25-15.96-4.76-6.91-10.13-15.12-16.1-24.64l9.38-3.08c7.84,11.76,14.49,21.12,19.95,28.07,5.46,6.95,10.29,11.95,14.49,14.98,4.2,3.03,8.21,4.55,12.04,4.55.28,0,.42.28.42.84s-.14.84-.42.84h-20.16Z"/>
    <path class="st3" d="M374.08,350.32c0-4.67-1.05-8.24-3.15-10.71-2.1-2.47-5.2-3.71-9.31-3.71-.28,0-.42-.28-.42-.84s.14-.84.42-.84c2.15,0,4.39.07,6.72.21,2.33.14,4.85.21,7.56.21,2.33,0,4.64-.07,6.93-.21,2.29-.14,4.41-.21,6.37-.21.19,0,.28.28.28.84s-.09.84-.28.84c-3.73,0-6.56,1.24-8.47,3.71-1.91,2.47-2.87,6.04-2.87,10.71v39.62c0,7-1.4,13.02-4.2,18.06-2.8,5.04-6.72,8.89-11.76,11.55s-10.92,3.99-17.64,3.99-12.97-1.33-18.2-3.99c-5.23-2.66-9.29-6.46-12.18-11.41-2.89-4.95-4.34-10.83-4.34-17.64v-44.94c0-2.71-.28-4.74-.84-6.09-.56-1.35-1.66-2.29-3.29-2.8-1.63-.51-4.04-.77-7.21-.77-.28,0-.42-.28-.42-.84s.14-.84.42-.84c2.33,0,4.9.07,7.7.21,2.8.14,5.83.21,9.1.21s6.46-.07,9.31-.21c2.85-.14,5.34-.21,7.49-.21.28,0,.42.28.42.84s-.14.84-.42.84c-3.17,0-5.58.28-7.21.84-1.63.56-2.71,1.54-3.22,2.94-.51,1.4-.77,3.45-.77,6.16v39.76c0,11.2,2.43,19.58,7.28,25.13,4.85,5.55,11.57,8.33,20.16,8.33s14.61-2.54,19.18-7.63c4.57-5.09,6.86-12.2,6.86-21.35v-39.76Z"/>
    <path class="st3" d="M556.92,420.04c.47,0,.7.28.7.84s-.23.84-.7.84c-2.71,0-5.48-.09-8.33-.28-2.85-.19-5.62-.28-8.33-.28-2.99,0-5.58.09-7.77.28-2.19.19-4.64.28-7.35.28-.37,0-.56-.28-.56-.84s.19-.84.56-.84c4.57,0,7.37-.72,8.4-2.17,1.03-1.45.51-4.32-1.54-8.61l-30.1-62.58,4.48-6.72-27.3,63.28c-2.43,5.69-2.57,9.92-.42,12.67,2.15,2.75,6.16,4.13,12.04,4.13.47,0,.7.28.7.84s-.23.84-.7.84c-2.8,0-5.37-.09-7.7-.28-2.33-.19-5.27-.28-8.82-.28s-6.23.09-8.33.28c-2.1.19-4.64.28-7.63.28-.37,0-.56-.28-.56-.84s.19-.84.56-.84c2.52,0,4.71-.49,6.58-1.47,1.87-.98,3.66-2.78,5.39-5.39,1.73-2.61,3.62-6.35,5.67-11.2l29.82-68.74c.09-.28.42-.44.98-.49.56-.05.89.12.98.49l33.6,69.3c2.24,4.57,4.18,8.14,5.81,10.71,1.63,2.57,3.24,4.34,4.83,5.32,1.59.98,3.27,1.47,5.04,1.47ZM488.46,376.78l2.1-3.22h28.84l.98,3.22h-31.92Z"/>
    <path class="st3" d="M605.08,383.64l-23.94-35.84c-3.08-4.57-5.74-7.7-7.98-9.38-2.24-1.68-4.67-2.52-7.28-2.52-.28,0-.42-.28-.42-.84s.14-.84.42-.84c1.49,0,3.08.07,4.76.21,1.68.14,3.27.21,4.76.21,2.61,0,5.18-.02,7.7-.07,2.52-.05,4.92-.12,7.21-.21,2.29-.09,4.27-.14,5.95-.14.19,0,.28.28.28.84s-.09.84-.28.84c-3.36,0-5.44.65-6.23,1.96-.79,1.31-.4,3.08,1.19,5.32l22.68,34.02-8.82,6.44ZM603.4,378.32l11.2-1.26v33.32c0,2.71.26,4.76.77,6.16.51,1.4,1.56,2.33,3.15,2.8,1.59.47,4.01.7,7.28.7.28,0,.42.28.42.84s-.14.84-.42.84c-2.24,0-4.78-.05-7.63-.14-2.85-.09-5.95-.14-9.31-.14-3.17,0-6.23.05-9.17.14-2.94.09-5.53.14-7.77.14-.28,0-.42-.28-.42-.84s.14-.84.42-.84c3.27,0,5.71-.23,7.35-.7,1.63-.47,2.73-1.4,3.29-2.8.56-1.4.84-3.45.84-6.16v-32.06ZM608.58,381.82l19.88-31.22c2.8-4.67,3.83-8.28,3.08-10.85-.75-2.57-3.22-3.85-7.42-3.85-.28,0-.42-.28-.42-.84s.14-.84.42-.84c2.71,0,5.25.07,7.63.21s5.53.21,9.45.21c2.33,0,4.22-.07,5.67-.21,1.45-.14,3.2-.21,5.25-.21.19,0,.28.28.28.84s-.09.84-.28.84c-2.05,0-4.29.63-6.72,1.89-2.43,1.26-4.78,3.03-7.07,5.32-2.29,2.29-4.41,5.02-6.37,8.19l-20.72,32.76-2.66-2.24Z"/>
    <path class="st3" d="M711.62,422.28c-2.8,0-6.25-.14-10.36-.42-4.11-.28-7.89-.42-11.34-.42-3.17,0-6.23.05-9.17.14-2.94.09-5.58.14-7.91.14-.19,0-.28-.28-.28-.84s.09-.84.28-.84c3.27,0,5.74-.23,7.42-.7,1.68-.47,2.8-1.4,3.36-2.8.56-1.4.84-3.45.84-6.16v-64.82c0-2.71-.28-4.74-.84-6.09-.56-1.35-1.63-2.29-3.22-2.8-1.59-.51-4.01-.77-7.28-.77-.28,0-.42-.28-.42-.84s.14-.84.42-.84c2.33,0,4.92.07,7.77.21,2.85.14,5.86.21,9.03.21s6.6-.12,10.29-.35c3.69-.23,6.84-.35,9.45-.35,9.89,0,18.5,1.87,25.83,5.6,7.33,3.73,13.04,8.82,17.15,15.26,4.11,6.44,6.16,13.67,6.16,21.7,0,7-1.24,13.32-3.71,18.97-2.47,5.65-5.9,10.45-10.29,14.42-4.39,3.97-9.43,7.02-15.12,9.17-5.69,2.15-11.71,3.22-18.06,3.22ZM710.22,419.76c7,0,13.18-1.54,18.55-4.62,5.37-3.08,9.59-7.63,12.67-13.65,3.08-6.02,4.62-13.32,4.62-21.91,0-8.12-1.45-15.42-4.34-21.91-2.89-6.49-6.93-11.67-12.11-15.54-5.18-3.87-11.36-5.81-18.55-5.81-5.6,0-9.59.56-11.97,1.68-2.38,1.12-3.57,3.73-3.57,7.84v63c0,3.73.93,6.49,2.8,8.26,1.87,1.77,5.83,2.66,11.9,2.66Z"/>
    <path class="st3" d="M811.58,410.38c0,2.71.26,4.76.77,6.16.51,1.4,1.59,2.33,3.22,2.8,1.63.47,4.08.7,7.35.7.19,0,.28.28.28.84s-.09.84-.28.84c-2.33,0-4.92-.05-7.77-.14-2.85-.09-5.95-.14-9.31-.14s-6.35.05-9.24.14c-2.89.09-5.51.14-7.84.14-.19,0-.28-.28-.28-.84s.14-.84.42-.84c3.17,0,5.6-.23,7.28-.7,1.68-.47,2.8-1.4,3.36-2.8.56-1.4.84-3.45.84-6.16v-64.82c0-2.71-.28-4.74-.84-6.09-.56-1.35-1.68-2.29-3.36-2.8-1.68-.51-4.15-.77-7.42-.77-.19,0-.28-.28-.28-.84s.09-.84.28-.84c2.33,0,4.95.07,7.84.21,2.89.14,5.97.21,9.24.21s6.49-.07,9.38-.21c2.89-.14,5.46-.21,7.7-.21.19,0,.28.28.28.84s-.09.84-.28.84c-3.27,0-5.69.28-7.28.84-1.59.56-2.66,1.54-3.22,2.94s-.84,3.45-.84,6.16v64.54Z"/>
    <path class="st3" d="M934.08,423.54c0,.19-.21.3-.63.35-.42.05-.72.02-.91-.07l-65.94-78.12c-3.27-3.83-6.09-6.42-8.47-7.77-2.38-1.35-4.74-2.03-7.07-2.03-.19,0-.28-.28-.28-.84s.09-.84.28-.84c1.77,0,3.55.05,5.32.14,1.77.09,3.41.14,4.9.14,2.24,0,4.29-.05,6.16-.14,1.87-.09,3.27-.14,4.2-.14,1.21,0,2.1.54,2.66,1.61.56,1.07,1.91,2.96,4.06,5.67l54.6,65.8,1.12,16.24ZM863.24,405.76v-68.32l3.64.28v68.04c0,4.85.89,8.45,2.66,10.78,1.77,2.33,4.57,3.5,8.4,3.5.19,0,.28.28.28.84s-.09.84-.28.84c-1.96,0-3.94-.05-5.95-.14-2.01-.09-4.27-.14-6.79-.14s-4.81.05-7.14.14c-2.33.09-4.53.14-6.58.14-.19,0-.28-.28-.28-.84s.09-.84.28-.84c4.11,0,7.09-1.17,8.96-3.5,1.87-2.33,2.8-5.93,2.8-10.78ZM934.08,350.32v73.22l-3.5-4.34v-68.88c0-4.85-.86-8.47-2.59-10.85-1.73-2.38-4.5-3.57-8.33-3.57-.19,0-.28-.28-.28-.84s.09-.84.28-.84c1.96,0,3.96.07,6.02.21,2.05.14,4.29.21,6.72.21s4.62-.07,6.86-.21,4.34-.21,6.3-.21c.19,0,.28.28.28.84s-.09.84-.28.84c-3.92,0-6.81,1.19-8.68,3.57-1.87,2.38-2.8,6-2.8,10.85Z"/>
  </g>
  <g>
    <circle class="st0" cx="474.18" cy="463.81" r="6.55"/>
    <line class="st1" x1="154.45" y1="463.81" x2="436.13" y2="463.81"/>
    <line class="st1" x1="512.23" y1="463.81" x2="793.9" y2="463.81"/>
  </g>
  <g>
    <path class="st2" d="M115.94,528.78v-22.4h8.38c1.9,0,3.53.3,4.9.91,1.36.61,2.42,1.48,3.15,2.62.74,1.14,1.1,2.52,1.1,4.14s-.37,2.94-1.1,4.08-1.79,2.02-3.15,2.64c-1.37.62-3,.93-4.9.93h-7.07l1.06-1.12v8.19h-2.37ZM118.31,520.78l-1.06-1.15h7.01c2.24,0,3.94-.48,5.1-1.46,1.16-.97,1.74-2.34,1.74-4.11s-.58-3.18-1.74-4.16-2.86-1.47-5.1-1.47h-7.01l1.06-1.12v13.47Z"/>
    <path class="st2" d="M150.76,528.78v-22.4h2.37v22.4h-2.37ZM152.87,518.45v-2.08h14.5v2.08h-14.5ZM167.14,528.78v-22.4h2.34v22.4h-2.34Z"/>
    <path class="st2" d="M193.8,528.78v-8.32l.54,1.47-9.5-15.55h2.53l8.35,13.66h-1.34l8.35-13.66h2.37l-9.5,15.55.54-1.47v8.32h-2.34Z"/>
    <path class="st2" d="M226.63,528.97c-1.66,0-3.26-.27-4.78-.82-1.53-.54-2.7-1.24-3.54-2.1l.93-1.82c.79.77,1.85,1.41,3.18,1.94,1.33.52,2.74.78,4.21.78s2.55-.18,3.44-.53c.88-.35,1.54-.83,1.95-1.42.42-.6.62-1.26.62-1.98,0-.88-.25-1.58-.75-2.11-.5-.53-1.16-.95-1.97-1.26-.81-.31-1.71-.58-2.69-.82-.98-.23-1.96-.48-2.94-.75-.98-.27-1.88-.62-2.7-1.07-.82-.45-1.48-1.04-1.98-1.78-.5-.74-.75-1.7-.75-2.9,0-1.11.29-2.13.88-3.06.59-.93,1.49-1.67,2.7-2.24,1.22-.56,2.77-.85,4.67-.85,1.26,0,2.51.18,3.74.53,1.24.35,2.3.84,3.2,1.46l-.8,1.89c-.96-.64-1.98-1.11-3.06-1.41-1.08-.3-2.12-.45-3.12-.45-1.34,0-2.45.18-3.33.54-.88.36-1.52.85-1.94,1.46-.42.61-.62,1.3-.62,2.06,0,.88.25,1.58.75,2.11.5.53,1.16.95,1.98,1.25.82.3,1.72.57,2.7.8.98.23,1.96.49,2.93.77.97.28,1.87.63,2.69,1.07s1.48,1.02,1.98,1.74c.5.72.75,1.67.75,2.85,0,1.09-.3,2.1-.9,3.02-.6.93-1.51,1.68-2.74,2.24-1.23.57-2.8.85-4.72.85Z"/>
    <path class="st2" d="M252.29,528.78v-22.4h2.37v22.4h-2.37Z"/>
    <path class="st2" d="M283.91,528.97c-1.69,0-3.25-.28-4.69-.85-1.44-.56-2.69-1.37-3.74-2.4-1.06-1.04-1.88-2.24-2.46-3.62-.59-1.38-.88-2.88-.88-4.53s.29-3.15.88-4.53c.59-1.38,1.41-2.58,2.46-3.62,1.06-1.04,2.3-1.83,3.73-2.4,1.43-.56,3-.85,4.7-.85s3.24.28,4.67.85c1.43.57,2.67,1.36,3.73,2.38,1.06,1.02,1.88,2.23,2.46,3.62.59,1.39.88,2.9.88,4.54s-.29,3.16-.88,4.54c-.59,1.39-1.41,2.59-2.46,3.62-1.06,1.02-2.3,1.82-3.73,2.38-1.43.57-2.99.85-4.67.85ZM283.91,526.86c1.34,0,2.59-.23,3.73-.69,1.14-.46,2.13-1.11,2.98-1.95.84-.84,1.5-1.82,1.97-2.94s.7-2.35.7-3.7-.23-2.58-.7-3.7c-.47-1.12-1.13-2.1-1.97-2.94-.84-.84-1.83-1.49-2.98-1.95-1.14-.46-2.38-.69-3.73-.69s-2.59.23-3.74.69c-1.15.46-2.15,1.11-3.01,1.95-.85.84-1.52,1.82-1.98,2.94-.47,1.12-.7,2.35-.7,3.7s.23,2.55.7,3.68c.47,1.13,1.13,2.12,1.98,2.96.85.84,1.86,1.49,3.01,1.95,1.15.46,2.4.69,3.74.69Z"/>
    <path class="st2" d="M317.16,528.78v-20.35h-7.87v-2.05h18.11v2.05h-7.87v20.35h-2.37Z"/>
    <path class="st2" d="M343.33,528.78v-22.4h2.37v22.4h-2.37ZM345.44,518.45v-2.08h14.5v2.08h-14.5ZM359.72,528.78v-22.4h2.34v22.4h-2.34Z"/>
    <path class="st2" d="M381.51,528.78v-22.4h15.36v2.05h-12.99v18.3h13.47v2.05h-15.84ZM383.62,518.41v-2.02h11.84v2.02h-11.84Z"/>
    <path class="st2" d="M415.08,528.78v-22.4h8.38c2.84,0,5.07.68,6.7,2.03,1.63,1.36,2.45,3.24,2.45,5.65,0,1.58-.37,2.94-1.1,4.08s-1.79,2.02-3.15,2.62c-1.37.61-3,.91-4.9.91h-7.07l1.06-1.09v8.19h-2.37ZM417.44,520.78l-1.06-1.12h7.01c2.24,0,3.94-.49,5.1-1.47s1.74-2.36,1.74-4.13-.58-3.18-1.74-4.16-2.86-1.47-5.1-1.47h-7.01l1.06-1.12v13.47ZM430.37,528.78l-5.76-8.13h2.56l5.79,8.13h-2.59Z"/>
    <path class="st2" d="M446.79,528.78l10.24-22.4h2.34l10.24,22.4h-2.5l-9.41-21.02h.96l-9.41,21.02h-2.46ZM450.82,522.8l.7-1.92h13.02l.7,1.92h-14.43Z"/>
    <path class="st2" d="M485.48,528.78v-22.4h8.38c1.9,0,3.53.3,4.9.91,1.37.61,2.42,1.48,3.15,2.62.74,1.14,1.1,2.52,1.1,4.14s-.37,2.94-1.1,4.08-1.79,2.02-3.15,2.64c-1.37.62-3,.93-4.9.93h-7.07l1.06-1.12v8.19h-2.37ZM487.84,520.78l-1.06-1.15h7.01c2.24,0,3.94-.48,5.1-1.46,1.16-.97,1.74-2.34,1.74-4.11s-.58-3.18-1.74-4.16c-1.16-.98-2.86-1.47-5.1-1.47h-7.01l1.06-1.12v13.47Z"/>
    <path class="st2" d="M520.29,528.78v-22.4h2.37v22.4h-2.37Z"/>
    <path class="st2" d="M542.11,528.78v-22.4h15.36v2.05h-12.99v18.3h13.47v2.05h-15.84ZM544.23,518.41v-2.02h11.84v2.02h-11.84Z"/>
    <path class="st2" d="M596.23,528.78v-22.4h1.95l10.24,17.47h-1.02l10.14-17.47h1.95v22.4h-2.27v-18.85h.54l-9.34,16h-1.12l-9.41-16h.61v18.85h-2.27Z"/>
    <path class="st2" d="M638.95,528.78v-22.4h2.37v22.4h-2.37Z"/>
    <path class="st2" d="M665.12,528.78v-20.35h-7.87v-2.05h18.11v2.05h-7.87v20.35h-2.37Z"/>
    <path class="st2" d="M711.84,528.78v-22.4h2.37v22.4h-2.37ZM713.95,518.45v-2.08h14.5v2.08h-14.5ZM728.22,528.78v-22.4h2.34v22.4h-2.34Z"/>
    <path class="st2" d="M750.02,528.78v-22.4h15.36v2.05h-12.99v18.3h13.47v2.05h-15.84ZM752.13,518.41v-2.02h11.84v2.02h-11.84Z"/>
    <path class="st2" d="M783.58,528.78v-22.4h8.38c2.84,0,5.07.68,6.7,2.03,1.63,1.36,2.45,3.24,2.45,5.65,0,1.58-.37,2.94-1.1,4.08s-1.79,2.02-3.15,2.62c-1.37.61-3,.91-4.9.91h-7.07l1.06-1.09v8.19h-2.37ZM785.95,520.78l-1.06-1.12h7.01c2.24,0,3.94-.49,5.1-1.47,1.16-.98,1.74-2.36,1.74-4.13s-.58-3.18-1.74-4.16c-1.16-.98-2.86-1.47-5.1-1.47h-7.01l1.06-1.12v13.47ZM798.88,528.78l-5.76-8.13h2.56l5.79,8.13h-2.59Z"/>
    <path class="st2" d="M816.67,528.78v-1.63l15.55-19.62.26.9h-15.58v-2.05h17.76v1.63l-15.52,19.62-.29-.9h16.19v2.05h-18.37Z"/>
  </g>
</svg>