<?xml version="1.0" encoding="UTF-8"?>
<svg id="Ebene_1" xmlns="http://www.w3.org/2000/svg" version="1.1" viewBox="0 0 2504.82 484.68">
  <!-- Generator: Adobe Illustrator 30.5.0, SVG Export Plug-In . SVG Version: 2.1.4 Build 167)  -->
  <defs>
    <style>
      .st0 {
        fill: #b17853;
      }

      .st1 {
        fill: #85866b;
      }

      .st2 {
        fill: #2f4332;
      }
    </style>
  </defs>
  <g>
    <g>
      <path class="st1" d="M222.61,414.18l23.1-43.06c12.59-23.48,27.15-45.28,46-64.07,12.26-12.22,25.03-22.15,38.33-33.08,22.42-18.42,41.96-39.3,57.01-64.23,20.41-33.81,32.83-77.03,29.49-117.99l-8.05,12.3c-6.91,10.58-16.26,19.95-26.88,26.73l-27.09,17.28c-8.23,5.25-16.24,10.22-24.04,16.09-26.22,19.7-46.33,44.76-60.39,74.15-15.8,33-19.16,52.62-26.01,86.75l-6.8,33.91c-3.82,19-11.08,36.13-19.62,53.41-1.27,2.53-1.99,4.29-3.8,6.24l-19.74,21.28c-5.97.83,3.38-7.09,8.42-22.73,17.15-53.22,10.25-105.4-33.66-142.09-21.11-17.65-46.42-22.48-64.85-38.43-7.98-6.91-13.32-15.29-19.5-24.29-4.25,49.03,19,94.1,61.2,116.99,26.88,14.58,48.97,28.02,55.38,60.75,3.13,15.95-8.23,35.07-16.88,50.21l-20.74-4.36c-10.22-2.16-19.12-6.18-28.72-10.54-21.9-9.96-41.73-23.15-58.92-40.07-15.31-15.08-28.21-30.99-38.64-49.73C4.53,276.82-.91,209.61,24.98,147.08c10.74-25.99,22.32-44.98,40.75-66.22,17.44-20.08,38.22-35.88,61.78-48.2C196.12-3.21,280.04.36,345.24,41.51c19.12,12.15,35.63,25.76,50.38,43.22l2.53-.62c.62-.15.08-2.16-.25-2.88-23.25-29.89-53.59-51.85-88.87-65.87C269.48-.38,226.82-3.7,184.67,3.93c-47.7,8.65-90.41,33.27-123.15,68.88C28.5,108.69,7.68,153.86,1.64,202.41c-5.81,46.73,3.96,93.1,26.19,134.44,25.66,47.66,68.36,84.41,119.21,102.56l30.38,9.13c-19.25,19.14-42.43,28.54-67.49,36.03,14.77.93,28.25-3.67,41.02-9.42,25.18-11.37,47.47-29.28,64.23-51.25l7.38-9.66.02-.04Z"/>
      <path class="st1" d="M396.66,292.55c-13.65,7.94-28.21,12.8-42.45,19.56l-23.08,10.97c-22.96,11.97-43.22,28.08-58.34,49.11l-29.8,41.44-18.21,21.96-14.97,14.06c11.95,1.43,29.7-6.41,38.62-12.51,22.07-15.04,44.42-20.16,68.4-32.71,10.56-5.52,17.53-13.96,21.65-24.78,2.8-7.36,7.59-13.63,14.14-17.86l27.38-17.69c23.54-15.2,48.39-50.38,49.07-80.84-9.52,12.24-19.6,21.82-32.42,29.28h.02Z"/>
    </g>
    <circle class="st0" cx="231.17" cy="187.42" r="26.53"/>
  </g>
  <g>
    <path class="st2" d="M679.34,347.57h-123.69c-.58,0-.87-.58-.87-1.74s.29-1.74.87-1.74c6.57,0,11.57-.48,14.95-1.45s5.66-2.9,6.82-5.81,1.74-7.16,1.74-12.78v-134.44c0-5.62-.58-9.83-1.74-12.63-1.16-2.8-3.44-4.75-6.82-5.81-3.38-1.06-8.38-1.6-14.95-1.6-.58,0-.87-.58-.87-1.74s.29-1.74.87-1.74h118.47c1.93,0,2.9.87,2.9,2.61l.58,36.59c0,.58-.54.91-1.6,1.02s-1.7-.15-1.89-.73c-1.35-10.64-5.12-18.73-11.32-24.24s-14.33-8.28-24.39-8.28h-14.81c-5.81,0-10.27.48-13.36,1.45s-5.23,2.76-6.39,5.37c-1.16,2.61-1.74,6.24-1.74,10.89v132.11c0,4.65.54,8.28,1.6,10.89s3.05,4.46,5.95,5.52,6.97,1.6,12.2,1.6h19.16c11.03,0,20.14-3.24,27.29-9.73,7.16-6.49,12.09-15.72,14.81-27.73,0-.58.58-.77,1.74-.58,1.16.19,1.74.58,1.74,1.16-.77,5.23-1.45,11.51-2.03,18.87-.58,7.36-.87,14.12-.87,20.33,0,2.9-1.45,4.36-4.36,4.36h0ZM663.08,280.79c0-8.32-2.36-14.48-7.11-18.44-4.75-3.96-12.34-5.95-22.79-5.95h-42.1v-6.68h42.97c9.87,0,17.13-1.7,21.78-5.08,4.65-3.38,6.97-8.67,6.97-15.82,0-.39.54-.58,1.6-.58s1.6.19,1.6.58c0,5.99-.04,10.64-.15,13.94-.1,3.3-.15,6.78-.15,10.45,0,4.46.15,8.9.44,13.36s.44,9.19.44,14.23c0,.39-.58.58-1.74.58s-1.74-.19-1.74-.58h0Z"/>
    <path class="st2" d="M823.07,248.85l3.19-3.77c12.01,0,22.5,2.14,31.5,6.39,9,4.25,15.97,10.06,20.91,17.42s7.4,15.87,7.4,25.55c0,10.27-2.65,19.5-7.98,27.73s-12.59,14.7-21.78,19.45c-9.19,4.75-19.5,7.11-30.92,7.11-5.81,0-12.67-.29-20.62-.87s-15.2-.87-21.78-.87-12.88.1-18.87.29c-5.99.19-11.43.29-16.26.29-.58,0-.87-.58-.87-1.74s.29-1.74.87-1.74c6.39,0,11.32-.48,14.81-1.45s5.85-2.9,7.11-5.81c1.27-2.9,1.89-7.16,1.89-12.78v-134.44c0-5.62-.58-9.83-1.74-12.63-1.16-2.8-3.44-4.75-6.82-5.81-3.38-1.06-8.38-1.6-14.95-1.6-.39,0-.58-.58-.58-1.74s.19-1.74.58-1.74c4.83,0,10.2.15,16.11.44s12.15.44,18.73.44c5.23,0,11.03-.29,17.42-.87s12.09-.87,17.13-.87c11.61,0,21.15,1.6,28.6,4.79,7.45,3.19,13.02,7.65,16.7,13.36s5.52,12.34,5.52,19.89c0,10.85-4.06,20.33-12.2,28.46s-19.16,13.83-33.1,17.13h0ZM812.03,170.16c-4.25,0-7.69.44-10.31,1.31s-4.46,2.72-5.52,5.52-1.6,7.22-1.6,13.21v56.91l-9.58-2.32c6.2.39,11.32.62,15.39.73,4.06.1,6.39.15,6.97.15,13.54,0,23.33-3.88,29.33-11.61,5.99-7.74,9-17.23,9-28.46,0-6.97-1.2-13.11-3.63-18.44-2.43-5.33-6.06-9.48-10.89-12.49s-11.22-4.5-19.16-4.5h0ZM820.75,342.92c14.12,0,24.43-3.63,30.92-10.89s9.73-17.46,9.73-30.63c0-14.33-3.96-26.09-11.9-35.28-7.94-9.19-19.56-13.79-34.84-13.79-3.88-.19-8.32-.19-13.36,0-5.04.19-10.16.68-15.39,1.45l8.71-3.19v73.46c0,4.46.62,8.09,1.89,10.89s3.77,4.83,7.55,6.1c3.77,1.27,9.33,1.89,16.7,1.89Z"/>
    <path class="st2" d="M1019.35,165.22c16.65,0,29.37,3.24,38.18,9.73s13.21,15.43,13.21,26.86c0,7.16-1.7,14.04-5.08,20.62s-7.94,12.38-13.65,17.42-12.3,9-19.74,11.9c-7.45,2.9-15.14,4.36-23.08,4.36-2.32,0-4.75-.04-7.26-.15-2.51-.1-4.83-.25-6.97-.44v68.52c0,5.62.54,9.87,1.6,12.78s3.3,4.83,6.68,5.81,8.46,1.45,15.24,1.45c.58,0,.87.58.87,1.74s-.29,1.74-.87,1.74c-4.83,0-10.16-.1-15.97-.29-5.81-.19-12.2-.29-19.16-.29-6.57,0-12.88.1-18.87.29-5.99.19-11.43.29-16.26.29-.58,0-.87-.58-.87-1.74s.29-1.74.87-1.74c6.57,0,11.57-.48,14.95-1.45s5.7-2.9,6.97-5.81,1.89-7.16,1.89-12.78v-134.44c0-5.62-.58-9.83-1.74-12.63-1.16-2.8-3.38-4.75-6.68-5.81-3.3-1.06-8.32-1.6-15.1-1.6-.39,0-.58-.58-.58-1.74s.19-1.74.58-1.74c4.83,0,10.2.15,16.11.44s12.15.44,18.73.44c5.23,0,11.22-.29,18-.87s12.78-.87,18-.87h0ZM1046.64,212.26c0-11.03-1.45-19.6-4.36-25.7-2.9-6.1-6.82-10.35-11.76-12.78-4.94-2.43-10.49-3.63-16.7-3.63-4.65,0-8.32.44-11.03,1.31-2.72.87-4.69,2.76-5.95,5.66s-1.89,7.26-1.89,13.07v57.78c2.72.19,5.66.44,8.86.73s5.95.44,8.28.44c12.38,0,21.24-2.76,26.57-8.28,5.33-5.52,7.99-15.06,7.99-28.6h0ZM1094.26,347.57c-3.09,0-8.17-3.88-15.24-11.61-7.07-7.74-15.53-18.77-25.41-33.1s-21.01-31.36-33.39-51.1l19.45-6.39c16.26,24.39,30.05,43.8,41.38,58.22,11.32,14.41,21.34,24.78,30.05,31.07,8.71,6.28,17.03,9.44,24.97,9.44.58,0,.87.58.87,1.74s-.29,1.74-.87,1.74h-41.81Z"/>
    <path class="st2" d="M1319,199.49c0-9.69-2.18-17.09-6.53-22.21-4.36-5.12-10.78-7.69-19.31-7.69-.58,0-.87-.58-.87-1.74s.29-1.74.87-1.74c4.46,0,9.1.15,13.94.44s10.06.44,15.68.44c4.83,0,9.62-.15,14.37-.44s9.15-.44,13.21-.44c.39,0,.58.58.58,1.74s-.19,1.74-.58,1.74c-7.74,0-13.61,2.57-17.57,7.69s-5.95,12.53-5.95,22.21v82.17c0,14.52-2.9,27-8.71,37.46s-13.94,18.44-24.39,23.95-22.65,8.28-36.58,8.28-26.9-2.76-37.75-8.28-19.27-13.4-25.26-23.66-9-22.46-9-36.59v-93.21c0-5.62-.58-9.83-1.74-12.63-1.16-2.8-3.44-4.75-6.82-5.81-3.38-1.06-8.38-1.6-14.95-1.6-.58,0-.87-.58-.87-1.74s.29-1.74.87-1.74c4.83,0,10.16.15,15.97.44s12.09.44,18.87.44,13.4-.15,19.31-.44,11.08-.44,15.53-.44c.58,0,.87.58.87,1.74s-.29,1.74-.87,1.74c-6.57,0-11.57.58-14.95,1.74s-5.62,3.19-6.68,6.1c-1.06,2.9-1.6,7.16-1.6,12.78v82.46c0,23.23,5.04,40.61,15.1,52.12,10.06,11.51,24,17.28,41.81,17.28s30.3-5.27,39.78-15.82c9.48-10.56,14.23-25.3,14.23-44.28v-82.46h0Z"/>
    <path class="st2" d="M1698.21,344.08c.97,0,1.45.58,1.45,1.74s-.48,1.74-1.45,1.74c-5.62,0-11.37-.19-17.28-.58s-11.66-.58-17.28-.58c-6.2,0-11.57.19-16.11.58s-9.62.58-15.24.58c-.77,0-1.16-.58-1.16-1.74s.39-1.74,1.16-1.74c9.48,0,15.29-1.49,17.42-4.5,2.14-3.01,1.06-8.96-3.19-17.86l-62.43-129.79,9.29-13.94-56.62,131.24c-5.04,11.8-5.33,20.57-.87,26.28,4.46,5.7,12.78,8.57,24.97,8.57.97,0,1.45.58,1.45,1.74s-.48,1.74-1.45,1.74c-5.81,0-11.14-.19-15.97-.58-4.83-.39-10.93-.58-18.29-.58s-12.92.19-17.28.58-9.62.58-15.82.58c-.77,0-1.16-.58-1.16-1.74s.39-1.74,1.16-1.74c5.23,0,9.77-1.02,13.65-3.05s7.59-5.77,11.18-11.18c3.59-5.41,7.51-13.17,11.76-23.23l61.85-142.57c.19-.58.87-.91,2.03-1.02s1.85.25,2.03,1.02l69.69,143.73c4.65,9.48,8.67,16.88,12.05,22.21,3.38,5.33,6.72,9,10.02,11.03s6.78,3.05,10.45,3.05h0ZM1556.22,254.36l4.36-6.68h59.81l2.03,6.68h-66.2Z"/>
    <path class="st2" d="M1798.09,268.59l-49.65-74.33c-6.39-9.48-11.9-15.97-16.55-19.45-4.65-3.48-9.69-5.23-15.1-5.23-.58,0-.87-.58-.87-1.74s.29-1.74.87-1.74c3.09,0,6.39.15,9.87.44s6.78.44,9.87.44c5.41,0,10.74-.04,15.97-.15s10.2-.25,14.95-.44c4.75-.19,8.86-.29,12.34-.29.39,0,.58.58.58,1.74s-.19,1.74-.58,1.74c-6.97,0-11.28,1.35-12.92,4.07-1.64,2.72-.83,6.39,2.47,11.03l47.04,70.56-18.29,13.36h0ZM1794.61,257.56l23.23-2.61v69.11c0,5.62.54,9.87,1.6,12.78s3.24,4.83,6.53,5.81c3.3.97,8.32,1.45,15.1,1.45.58,0,.87.58.87,1.74s-.29,1.74-.87,1.74c-4.65,0-9.91-.1-15.82-.29-5.91-.19-12.34-.29-19.31-.29-6.57,0-12.92.1-19.02.29-6.1.19-11.47.29-16.11.29-.58,0-.87-.58-.87-1.74s.29-1.74.87-1.74c6.78,0,11.86-.48,15.24-1.45,3.38-.97,5.66-2.9,6.82-5.81s1.74-7.16,1.74-12.78v-66.49h0ZM1805.35,264.82l41.23-64.75c5.81-9.69,7.94-17.17,6.39-22.5s-6.68-7.98-15.39-7.98c-.58,0-.87-.58-.87-1.74s.29-1.74.87-1.74c5.62,0,10.89.15,15.82.44s11.47.44,19.6.44c4.83,0,8.75-.15,11.76-.44s6.64-.44,10.89-.44c.39,0,.58.58.58,1.74s-.19,1.74-.58,1.74c-4.25,0-8.9,1.31-13.94,3.92s-9.91,6.28-14.66,11.03c-4.75,4.75-9.15,10.41-13.21,16.99l-42.97,67.94-5.52-4.65h0Z"/>
    <path class="st2" d="M2019.05,348.73c-5.81,0-12.96-.29-21.49-.87-8.52-.58-16.36-.87-23.52-.87-6.57,0-12.92.1-19.02.29-6.1.19-11.57.29-16.41.29-.39,0-.58-.58-.58-1.74s.19-1.74.58-1.74c6.78,0,11.9-.48,15.39-1.45s5.81-2.9,6.97-5.81,1.74-7.16,1.74-12.78v-134.44c0-5.62-.58-9.83-1.74-12.63-1.16-2.8-3.38-4.75-6.68-5.81-3.3-1.06-8.32-1.6-15.1-1.6-.58,0-.87-.58-.87-1.74s.29-1.74.87-1.74c4.83,0,10.2.15,16.11.44s12.15.44,18.73.44,13.69-.25,21.34-.73c7.65-.48,14.19-.73,19.6-.73,20.51,0,38.37,3.88,53.57,11.61,15.2,7.74,27.04,18.29,35.57,31.65,8.52,13.36,12.78,28.35,12.78,45.01,0,14.52-2.57,27.63-7.69,39.34-5.12,11.72-12.24,21.67-21.34,29.91-9.1,8.23-19.56,14.56-31.36,19.02-11.8,4.46-24.29,6.68-37.46,6.68h0ZM2016.15,343.5c14.52,0,27.34-3.19,38.47-9.58,11.14-6.39,19.89-15.82,26.28-28.31,6.39-12.49,9.58-27.63,9.58-45.44,0-16.84-3.01-31.98-9-45.44-5.99-13.46-14.37-24.2-25.12-32.23-10.74-8.03-23.56-12.05-38.47-12.05-11.61,0-19.89,1.16-24.83,3.48s-7.4,7.74-7.4,16.26v130.66c0,7.74,1.93,13.46,5.81,17.13,3.88,3.67,12.09,5.52,24.68,5.52h0Z"/>
    <path class="st2" d="M2226.37,324.05c0,5.62.54,9.87,1.6,12.78s3.3,4.83,6.68,5.81,8.46,1.45,15.24,1.45c.39,0,.58.58.58,1.74s-.19,1.74-.58,1.74c-4.83,0-10.2-.1-16.11-.29-5.91-.19-12.34-.29-19.31-.29s-13.17.1-19.16.29c-5.99.19-11.43.29-16.26.29-.39,0-.58-.58-.58-1.74s.29-1.74.87-1.74c6.57,0,11.61-.48,15.1-1.45s5.81-2.9,6.97-5.81,1.74-7.16,1.74-12.78v-134.44c0-5.62-.58-9.83-1.74-12.63-1.16-2.8-3.48-4.75-6.97-5.81-3.48-1.06-8.61-1.6-15.39-1.6-.39,0-.58-.58-.58-1.74s.19-1.74.58-1.74c4.83,0,10.27.15,16.26.44,5.99.29,12.38.44,19.16.44s13.46-.15,19.45-.44,11.32-.44,15.97-.44c.39,0,.58.58.58,1.74s-.19,1.74-.58,1.74c-6.78,0-11.8.58-15.1,1.74s-5.52,3.19-6.68,6.1c-1.16,2.9-1.74,7.16-1.74,12.78v133.86h0Z"/>
    <path class="st2" d="M2480.43,351.34c0,.39-.44.62-1.31.73-.87.1-1.49.04-1.89-.15l-136.76-162.02c-6.78-7.94-12.63-13.31-17.57-16.11s-9.83-4.21-14.66-4.21c-.39,0-.58-.58-.58-1.74s.19-1.74.58-1.74c3.67,0,7.36.1,11.03.29s7.07.29,10.16.29c4.65,0,8.9-.1,12.78-.29,3.88-.19,6.78-.29,8.71-.29,2.51,0,4.36,1.12,5.52,3.34,1.16,2.22,3.96,6.14,8.42,11.76l113.24,136.47,2.32,33.68h0ZM2333.51,314.47v-141.69l7.55.58v141.11c0,10.06,1.85,17.53,5.52,22.36s9.48,7.26,17.42,7.26c.39,0,.58.58.58,1.74s-.19,1.74-.58,1.74c-4.06,0-8.17-.1-12.34-.29-4.17-.19-8.86-.29-14.08-.29s-9.98.1-14.81.29c-4.83.19-9.4.29-13.65.29-.39,0-.58-.58-.58-1.74s.19-1.74.58-1.74c8.52,0,14.7-2.43,18.58-7.26,3.88-4.83,5.81-12.3,5.81-22.36h0ZM2480.43,199.49v151.86l-7.26-9v-142.86c0-10.06-1.78-17.57-5.37-22.5s-9.33-7.4-17.28-7.4c-.39,0-.58-.58-.58-1.74s.19-1.74.58-1.74c4.06,0,8.23.15,12.49.44s8.9.44,13.94.44,9.58-.15,14.23-.44,9-.44,13.07-.44c.39,0,.58.58.58,1.74s-.19,1.74-.58,1.74c-8.13,0-14.12,2.47-18,7.4-3.88,4.94-5.81,12.44-5.81,22.5Z"/>
  </g>
</svg>