<?xml version="1.0" encoding="UTF-8"?>
<svg id="Ebene_1" xmlns="http://www.w3.org/2000/svg" version="1.1" viewBox="0 0 381.52 430.95">
  <!-- Generator: Adobe Illustrator 30.5.1, SVG Export Plug-In . SVG Version: 2.1.4 Build 3)  -->
  <defs>
    <style>
      .st0 {
        fill: #b17853;
      }

      .st1 {
        fill: #85866b;
      }
    </style>
  </defs>
  <g>
    <path class="st1" d="M197.92,368.31l20.54-38.29c11.2-20.87,24.15-40.27,40.91-56.96,10.89-10.87,22.26-19.69,34.07-29.4,19.94-16.37,37.31-34.94,50.69-57.11,18.16-30.06,29.18-68.5,26.21-104.92l-7.15,10.94c-6.14,9.4-14.45,17.73-23.91,23.77l-24.09,15.35c-7.32,4.67-14.44,9.09-21.36,14.31-23.31,17.51-41.19,39.79-53.7,65.92-14.04,29.34-17.03,46.8-23.12,77.14l-6.05,30.15c-3.38,16.9-9.85,32.13-17.45,47.49-1.11,2.26-1.77,3.82-3.37,5.55l-17.54,18.92c-5.3.73,3-6.3,7.48-20.21,15.26-47.33,9.11-93.72-29.93-126.34-18.77-15.68-41.28-19.99-57.66-34.18-7.09-6.15-11.83-13.6-17.34-21.6-3.78,43.59,16.9,83.67,54.41,104.02,23.91,12.97,43.53,24.91,49.24,54,2.78,14.17-7.32,31.17-15.01,44.63l-18.44-3.88c-9.09-1.92-17.02-5.49-25.54-9.37-19.48-8.84-37.11-20.59-52.39-35.63-13.62-13.4-25.08-27.56-34.35-44.22C4.04,246.12-.78,186.35,22.21,130.75c9.56-23.11,19.84-39.99,36.24-58.88,15.51-17.86,33.97-31.89,54.94-42.85C174.41-2.83,249.03.34,307,36.93c17,10.81,31.69,22.9,44.79,38.42l2.24-.56c.56-.13.07-1.92-.23-2.58-20.66-26.56-47.65-46.1-79.03-58.57C239.61-.34,201.67-3.3,164.2,3.5c-42.42,7.69-80.38,29.58-109.5,61.24C25.34,96.64,6.83,136.79,1.46,179.98c-5.15,41.54,3.51,82.78,23.3,119.53,22.8,42.38,60.78,75.06,106,91.18l27.02,8.11c-17.12,17.02-37.74,25.38-60.01,32.04,13.12.82,25.11-3.25,36.48-8.38,22.39-10.1,42.22-26.04,57.12-45.57l6.56-8.6h0Z"/>
    <path class="st1" d="M352.69,260.16c-12.12,7.06-25.08,11.38-37.75,17.38l-20.51,9.75c-20.41,10.65-38.42,24.97-51.87,43.68l-26.49,36.84-16.18,19.53-13.33,12.51c10.63,1.27,26.4-5.71,34.34-11.11,19.62-13.37,39.49-17.94,60.81-29.08,9.4-4.91,15.58-12.42,19.26-22.04,2.5-6.55,6.77-12.12,12.58-15.89l24.35-15.73c20.92-13.53,43.04-44.79,43.62-71.88-8.46,10.88-17.43,19.39-28.82,26.04h-.01Z"/>
  </g>
  <circle class="st0" cx="205.54" cy="166.68" r="23.59"/>
</svg>